<?xml version="1.0" encoding="UTF-8" standalone="no"?>
<!-- Created with Inkscape (http://www.inkscape.org/) -->

<svg
   xmlns:dc="http://purl.org/dc/elements/1.1/"
   xmlns:cc="http://creativecommons.org/ns#"
   xmlns:rdf="http://www.w3.org/1999/02/22-rdf-syntax-ns#"
   xmlns:svg="http://www.w3.org/2000/svg"
   xmlns="http://www.w3.org/2000/svg"
   xmlns:sodipodi="http://sodipodi.sourceforge.net/DTD/sodipodi-0.dtd"
   xmlns:inkscape="http://www.inkscape.org/namespaces/inkscape"
   width="20"
   height="20"
   id="svg4390"
   version="1.1"
   inkscape:version="0.48.4 r9939"
   sodipodi:docname="Nieuw document 9">
  <defs
     id="defs4392" />
  <sodipodi:namedview
     id="base"
     pagecolor="#ffffff"
     bordercolor="#666666"
     borderopacity="1.0"
     inkscape:pageopacity="0.0"
     inkscape:pageshadow="2"
     inkscape:zoom="2.8"
     inkscape:cx="11.834751"
     inkscape:cy="18.440167"
     inkscape:document-units="px"
     inkscape:current-layer="layer1"
     showgrid="false"
     inkscape:window-width="513"
     inkscape:window-height="423"
     inkscape:window-x="130"
     inkscape:window-y="130"
     inkscape:window-maximized="0" />
  <metadata
     id="metadata4395">
    <rdf:RDF>
      <cc:Work
         rdf:about="">
        <dc:format>image/svg+xml</dc:format>
        <dc:type
           rdf:resource="http://purl.org/dc/dcmitype/StillImage" />
        <dc:title></dc:title>
      </cc:Work>
    </rdf:RDF>
  </metadata>
  <g
     inkscape:label="Laag 1"
     inkscape:groupmode="layer"
     id="layer1"
     transform="translate(0,-1032.3622)">
    <g
       id="g25338"
       transform="matrix(0.20805265,0,0,0.20805265,-231.56354,813.58808)"
       style="fill:#ffffff;display:inline"
       inkscape:export-filename="E:\Documents\zolabo\projects\undp\grafisch\image5.png"
       inkscape:export-xdpi="104.00081"
       inkscape:export-ydpi="104.00081">
      <path
         style="fill:#ffffff;fill-opacity:1"
         d="m 1121.0693,1139.6091 c 0,-0.3623 1.4028,-4.8695 3.1174,-10.016 l 3.1173,-9.3572 6.3827,6.3259 c 3.5104,3.4792 6.3826,6.5783 6.3826,6.8867 0,0.3085 -4.275,1.9691 -9.5,3.6902 -5.225,1.721 -9.5,2.8328 -9.5,2.4704 z m 20.0031,-19.6605 -6.4648,-6.5228 19.9716,-19.9902 19.9715,-19.9903 6.5031,6.5032 6.5032,6.5031 -20.0099,20.0099 -20.0099,20.0099 -6.4648,-6.5228 z m 46.988,-47.0121 -6.303,-6.3596 2.906,-3.4935 c 1.5982,-1.9215 3.37,-3.5261 3.9372,-3.5658 1.5368,-0.1076 12.4687,11.2523 12.4687,12.9568 0,0.8091 -1.5089,2.6749 -3.353,4.1463 l -3.3529,2.6753 -6.303,-6.3595 z"
         id="path25340"
         inkscape:connector-curvature="0" />
    </g>
  </g>
</svg>
