<?xml version="1.0" encoding="UTF-8" standalone="no"?>
<!-- Created with Inkscape (http://www.inkscape.org/) -->

<svg
   xmlns:dc="http://purl.org/dc/elements/1.1/"
   xmlns:cc="http://creativecommons.org/ns#"
   xmlns:rdf="http://www.w3.org/1999/02/22-rdf-syntax-ns#"
   xmlns:svg="http://www.w3.org/2000/svg"
   xmlns="http://www.w3.org/2000/svg"
   xmlns:sodipodi="http://sodipodi.sourceforge.net/DTD/sodipodi-0.dtd"
   xmlns:inkscape="http://www.inkscape.org/namespaces/inkscape"
   width="38"
   height="32"
   id="svg4326"
   version="1.1"
   inkscape:version="0.48.4 r9939"
   sodipodi:docname="Nieuw document 6">
  <defs
     id="defs4328" />
  <sodipodi:namedview
     id="base"
     pagecolor="#ffffff"
     bordercolor="#666666"
     borderopacity="1.0"
     inkscape:pageopacity="0.0"
     inkscape:pageshadow="2"
     inkscape:zoom="5.6"
     inkscape:cx="21.391878"
     inkscape:cy="39.214408"
     inkscape:document-units="px"
     inkscape:current-layer="layer1"
     showgrid="false"
     inkscape:window-width="1144"
     inkscape:window-height="772"
     inkscape:window-x="78"
     inkscape:window-y="78"
     inkscape:window-maximized="0" />
  <metadata
     id="metadata4331">
    <rdf:RDF>
      <cc:Work
         rdf:about="">
        <dc:format>image/svg+xml</dc:format>
        <dc:type
           rdf:resource="http://purl.org/dc/dcmitype/StillImage" />
        <dc:title></dc:title>
      </cc:Work>
    </rdf:RDF>
  </metadata>
  <g
     inkscape:label="Laag 1"
     inkscape:groupmode="layer"
     id="layer1"
     transform="translate(0,-1020.3622)">
    <rect
       ry="0"
       y="1020.3246"
       x="0.012445434"
       height="32.270443"
       width="36.137161"
       id="rect24890"
       style="color:#000000;fill:#e6e6e6;fill-opacity:1;fill-rule:nonzero;stroke:none;stroke-width:1;marker:none;visibility:visible;display:inline;overflow:visible;enable-background:accumulate"
       inkscape:export-filename="E:\Documents\zolabo\projects\undp\grafisch\image2.png"
       inkscape:export-xdpi="250"
       inkscape:export-ydpi="250" />
    <g
       id="g25080"
       transform="matrix(0.28254802,0,0,0.28254802,-187.17105,925.43968)"
       style="fill:#333333;fill-opacity:1"
       inkscape:export-filename="E:\Documents\zolabo\projects\undp\grafisch\image2.png"
       inkscape:export-xdpi="250"
       inkscape:export-ydpi="250">
      <path
         style="fill:#333333;fill-opacity:1"
         d="m 718.2342,429.63535 c -18.43863,-5.92495 -30.19707,-24.49435 -26.92749,-42.52499 3.30731,-18.23869 19.79535,-32.60012 37.42749,-32.60012 13.33424,0 27.43156,9.03782 33.84798,21.69999 14.70982,29.02844 -13.71322,63.2691 -44.34798,53.42512 z m 24.52028,-4.48244 c 5.749,-2.67714 14.47972,-11.73926 14.47972,-15.02934 0,-1.84193 -1.02142,-2.43212 -6.75,-3.90024 -8.24586,-2.11324 -11.25988,-2.15363 -15.90424,-0.21309 -4.45675,1.86215 -4.34576,1.86924 -4.34576,-0.27776 0,-0.97777 -0.9,-2.54836 -2,-3.49021 -1.1,-0.94185 -2,-2.39186 -2,-3.22224 0,-1.68836 -3.53271,-2.0749 -4.51008,-0.49348 -0.91831,1.48585 -2.48992,0.17592 -2.48992,-2.07533 0,-2.93839 3.67998,-2.42915 7.65278,1.05902 1.87925,1.65 3.80006,3 4.26847,3 0.46842,0 1.15569,-2.0274 1.52728,-4.50534 0.37159,-2.47794 1.31991,-5.74044 2.10738,-7.25 0.78747,-1.50956 1.43454,-3.30335 1.43793,-3.98619 0.003,-0.68283 0.90616,-1.80358 2.00616,-2.49054 1.1,-0.68696 2,-1.81578 2,-2.50848 0,-0.73272 1.25466,-1.25945 3,-1.25945 5.10721,0 3.22217,-3.69843 -4.25,-8.33844 -3.59371,-2.23158 -3.49481,-3.42449 0.23848,-2.87656 2.20089,0.32302 3.16723,-0.0272 3.66676,-1.32895 0.84927,-2.21316 -1.87394,-4.54805 -7.45127,-6.38873 -3.60159,-1.18864 -4.51977,-1.14535 -7.6983,0.36297 -1.9968,0.94754 -5.97712,1.71257 -8.91021,1.71257 -7.15342,0 -12.06363,2.85567 -11.15246,6.48604 0.39169,1.56063 -0.17419,4.70945 -1.46759,8.16638 -2.21423,5.91806 -2.15039,11.0707 0.24532,19.79864 1.0394,3.78668 1.69243,4.36988 8.7015,7.77102 4.16777,2.02239 9.44653,4.6854 11.73057,5.91778 4.10658,2.21576 4.13642,2.27196 2.68115,5.04944 -1.31238,2.50477 -1.29556,3.07749 0.15547,5.29203 0.89491,1.36582 2.27589,2.73226 3.06885,3.03654 0.79295,0.30429 1.44173,1.4051 1.44173,2.44626 0,2.52929 2.36889,2.4002 8.52028,-0.46432 z M 727.7342,372.79717 c -3.29476,-0.79249 -3.84993,-2.02929 -1.48019,-3.29753 1.78398,-0.95476 2.40744,-0.92303 3.09205,0.15736 0.77367,1.22092 1.25197,4.02206 0.63814,3.73724 -0.1375,-0.0638 -1.15,-0.33248 -2.25,-0.59707 z"
         id="path25082"
         inkscape:connector-curvature="0" />
    </g>
  </g>
</svg>
